<svg width="170" height="32" viewBox="0 0 170 32" fill="none" xmlns="http://www.w3.org/2000/svg">
<rect width="170" height="32" fill="#F5F5F5"/>
<g clip-path="url(#clip0_0_1)">
<rect width="170" height="32" fill="white"/>
<path d="M10.0952 9.06C11.6152 9.06 12.9286 9.34667 14.0352 9.92C15.1552 10.48 16.0086 11.2867 16.5952 12.34C17.1952 13.3933 17.4952 14.6333 17.4952 16.06C17.4952 17.4867 17.1952 18.7267 16.5952 19.78C16.0086 20.82 15.1552 21.62 14.0352 22.18C12.9286 22.7267 11.6152 23 10.0952 23H5.75523V9.06H10.0952ZM10.0952 21.5C11.8952 21.5 13.2686 21.0267 14.2152 20.08C15.1619 19.12 15.6352 17.78 15.6352 16.06C15.6352 14.3267 15.1552 12.9733 14.1952 12C13.2486 11.0267 11.8819 10.54 10.0952 10.54H7.57523V21.5H10.0952ZM35.3879 23H33.5679L26.2479 11.9V23H24.4279V9.04H26.2479L33.5679 20.12V9.04H35.3879V23ZM46.3304 19.9H40.2504L39.1304 23H37.2104L42.2504 9.14H44.3504L49.3704 23H47.4504L46.3304 19.9ZM45.8104 18.42L43.2904 11.38L40.7704 18.42H45.8104ZM62.687 9.06L57.427 23H55.327L50.067 9.06H52.007L56.387 21.08L60.767 9.06H62.687ZM66.1026 10.54V15.2H71.1826V16.7H66.1026V21.5H71.7826V23H64.2826V9.04H71.7826V10.54H66.1026ZM75.9565 10.54V15.2H81.0365V16.7H75.9565V21.5H81.6365V23H74.1365V9.04H81.6365V10.54H75.9565ZM94.9504 23H93.1304L85.8104 11.9V23H83.9904V9.04H85.8104L93.1304 20.12V9.04H94.9504V23Z" fill="black"/>
<path d="M110.145 23L104.405 16.64V23H102.585V9.06H104.405V15.52L110.165 9.06H112.465L106.145 16.04L112.525 23H110.145ZM115.938 9.06V17.88C115.938 19.12 116.238 20.04 116.838 20.64C117.451 21.24 118.298 21.54 119.378 21.54C120.444 21.54 121.278 21.24 121.878 20.64C122.491 20.04 122.798 19.12 122.798 17.88V9.06H124.618V17.86C124.618 19.02 124.384 20 123.918 20.8C123.451 21.5867 122.818 22.1733 122.018 22.56C121.231 22.9467 120.344 23.14 119.358 23.14C118.371 23.14 117.478 22.9467 116.678 22.56C115.891 22.1733 115.264 21.5867 114.798 20.8C114.344 20 114.118 19.02 114.118 17.86V9.06H115.938ZM141.394 9.16V23H139.574V12.68L134.974 23H133.694L129.074 12.66V23H127.254V9.16H129.214L134.334 20.6L139.454 9.16H141.394ZM152.32 19.9H146.24L145.12 23H143.2L148.24 9.14H150.34L155.36 23H153.44L152.32 19.9ZM151.8 18.42L149.28 11.38L146.76 18.42H151.8ZM164.497 23L161.177 17.3H158.977V23H157.157V9.06H161.657C162.71 9.06 163.597 9.24 164.317 9.6C165.05 9.96 165.597 10.4467 165.957 11.06C166.317 11.6733 166.497 12.3733 166.497 13.16C166.497 14.12 166.217 14.9667 165.657 15.7C165.11 16.4333 164.283 16.92 163.177 17.16L166.677 23H164.497ZM158.977 15.84H161.657C162.643 15.84 163.383 15.6 163.877 15.12C164.37 14.6267 164.617 13.9733 164.617 13.16C164.617 12.3333 164.37 11.6933 163.877 11.24C163.397 10.7867 162.657 10.56 161.657 10.56H158.977V15.84Z" fill="#00FF00"/>
</g>
<defs>
<clipPath id="clip0_0_1">
<rect width="170" height="32" fill="white"/>
</clipPath>
</defs>
</svg>
